<?xml version="1.0" encoding="UTF-8"?><svg id="Layer_1" xmlns="http://www.w3.org/2000/svg" viewBox="0 0 417.47 330.11"><defs><style>.cls-1{fill:#5b94b3;stroke-width:0px;}</style></defs><path class="cls-1" d="M133.64,329.16l-2.76-6.99h-13.77l-2.61,6.99h-9.35l14.92-35.58h8.34l14.77,35.58h-9.55ZM124.09,303.08l-4.52,12.21h8.94l-4.42-12.21Z"/><path class="cls-1" d="M173.23,329.16l-14.32-23.27h-.15l.2,23.27h-8.34v-35.58h9.8l14.27,23.22h.15l-.2-23.22h8.34v35.58h-9.75Z"/><path class="cls-1" d="M231.87,311.21c0,2.82-.49,5.39-1.46,7.71-.97,2.33-2.32,4.32-4.05,5.98-1.72,1.66-3.78,2.94-6.15,3.85-2.38.9-4.96,1.36-7.74,1.36s-5.35-.45-7.71-1.36c-2.36-.91-4.4-2.19-6.13-3.85-1.73-1.66-3.07-3.65-4.05-5.98-.97-2.32-1.46-4.9-1.46-7.71s.49-5.42,1.46-7.71,2.32-4.24,4.05-5.85c1.73-1.61,3.77-2.85,6.13-3.72,2.36-.87,4.94-1.31,7.71-1.31s5.36.43,7.74,1.31c2.38.87,4.43,2.11,6.15,3.72,1.73,1.61,3.07,3.56,4.05,5.85.97,2.3,1.46,4.87,1.46,7.71ZM222.68,311.21c0-1.54-.25-2.98-.75-4.32-.5-1.34-1.2-2.49-2.08-3.44-.89-.95-1.96-1.71-3.22-2.26s-2.64-.83-4.15-.83-2.88.28-4.12.83c-1.24.55-2.31,1.31-3.22,2.26-.9.95-1.6,2.1-2.08,3.44-.49,1.34-.73,2.78-.73,4.32s.25,3.09.75,4.45c.5,1.36,1.2,2.52,2.08,3.49.89.97,1.95,1.73,3.19,2.29,1.24.55,2.61.83,4.12.83s2.88-.28,4.12-.83c1.24-.55,2.31-1.32,3.21-2.29.91-.97,1.61-2.14,2.11-3.49.51-1.36.75-2.84.75-4.45Z"/><path class="cls-1" d="M259.06,329.16h-8.6l-13.46-35.58h9.65l8.24,25.22h.2l8.19-25.22h9.5l-13.72,35.58Z"/><path class="cls-1" d="M302.78,329.16l-2.76-6.99h-13.77l-2.62,6.99h-9.35l14.92-35.58h8.34l14.78,35.58h-9.55ZM293.23,303.08l-4.52,12.21h8.94l-4.42-12.21Z"/><path class="cls-1" d="M417.47,113.83h-20.36v-2.55h20.36v2.55ZM386.93,113.83h-20.36v-2.55h20.36v2.55ZM356.38,113.83h-20.36v-2.55h20.36v2.55ZM325.83,113.83h-20.36v-2.55h20.36v2.55ZM295.29,113.83h-20.36v-2.55h20.36v2.55ZM264.74,113.83h-20.37v-2.55h20.37v2.55ZM234.19,113.83h-20.36v-2.55h20.36v2.55ZM203.65,113.83h-20.36v-2.55h20.36v2.55ZM173.1,113.83h-20.36v-2.55h20.36v2.55ZM142.55,113.83h-20.36v-2.55h20.36v2.55ZM112.01,113.83h-20.36v-2.55h20.36v2.55ZM81.46,113.83h-20.36v-2.55h20.36v2.55ZM50.91,113.83h-20.36v-2.55h20.36v2.55ZM20.36,113.83H0v-2.55h20.36v2.55Z"/><circle class="cls-1" cx="41.82" cy="170.55" r="6.79"/><circle class="cls-1" cx="41.82" cy="207.47" r="6.79"/><circle class="cls-1" cx="28.24" cy="148.59" r="6.79"/><circle class="cls-1" cx="48.62" cy="126.62" r="6.79"/><circle class="cls-1" cx="48.62" cy="89.05" r="6.79"/><circle class="cls-1" cx="55.41" cy="155.38" r="6.79"/><circle class="cls-1" cx="68.99" cy="133.41" r="6.79"/><circle class="cls-1" cx="68.99" cy="37.09" r="6.79"/><circle class="cls-1" cx="206.34" cy="102.63" r="6.79"/><circle class="cls-1" cx="199.55" cy="170.55" r="6.79"/><circle class="cls-1" cx="185.97" cy="82.26" r="6.79"/><circle class="cls-1" cx="192.76" cy="37.09" r="6.79"/><circle class="cls-1" cx="219.92" cy="43.88" r="6.79"/><circle class="cls-1" cx="199.55" cy="61.03" r="6.79"/><circle class="cls-1" cx="219.92" cy="64.64" r="6.79"/><circle class="cls-1" cx="185.97" cy="6.79" r="6.79"/><circle class="cls-1" cx="349" cy="147.37" r="6.79"/><circle class="cls-1" cx="342.21" cy="215.29" r="6.79"/><circle class="cls-1" cx="328.63" cy="127" r="6.79"/><circle class="cls-1" cx="349" cy="75.03" r="6.79"/><circle class="cls-1" cx="362.59" cy="88.61" r="6.79"/><circle class="cls-1" cx="342.21" cy="105.76" r="6.79"/><circle class="cls-1" cx="362.59" cy="109.38" r="6.79"/><circle class="cls-1" cx="362.59" cy="51.53" r="6.79"/></svg>