<?xml version="1.0" encoding="UTF-8"?><svg id="Layer_1" xmlns="http://www.w3.org/2000/svg" viewBox="0 0 366.49 306.22"><defs><style>.cls-1{fill:#5b94b3;stroke-width:0px;}</style></defs><path class="cls-1" d="M334.15,201.3H18.34V46.35h315.81v154.95ZM25.63,194.01h301.24V53.64H25.63v140.37Z"/><path class="cls-1" d="M73.82,201.3H18.34V46.35h55.48v154.95ZM25.63,194.01h40.9V53.64H25.63v140.37Z"/><path class="cls-1" d="M334.15,53.64H66.53V0h267.62v53.64ZM73.82,46.35h253.05V7.29H73.82v39.06Z"/><rect class="cls-1" x="243.05" y="3.64" width="7.29" height="195.27"/><rect class="cls-1" x="151.48" y="3.64" width="7.29" height="195.27"/><path class="cls-1" d="M334.15,201.3H18.34v-81.12h315.81v81.12ZM25.63,194.01h301.24v-66.54H25.63v66.54Z"/><polygon class="cls-1" points="108.22 28.13 112.33 28.13 110.29 22.51 108.22 28.13"/><path class="cls-1" d="M70.17,6.75v43.25h84.96V6.75h-84.96ZM114.68,34.5l-1.27-3.21h-6.33l-1.2,3.21h-4.3l6.86-16.35h3.84l6.79,16.35h-4.39Z"/><path class="cls-1" d="M208.07,29.74c0,.89-.18,1.64-.53,2.25-.35.61-.82,1.1-1.41,1.47-.59.37-1.25.63-2,.8-.75.16-1.51.24-2.3.24h-6.51v-16.35h6.51c.63,0,1.28.06,1.94.2s1.26.36,1.8.67c.54.32.98.74,1.32,1.28.34.54.51,1.22.51,2.06,0,.91-.25,1.66-.74,2.25-.49.59-1.14,1.02-1.94,1.28v.05c.46.07.9.22,1.3.43.41.21.76.47,1.06.8.3.32.54.7.72,1.13.18.43.27.92.27,1.46ZM203.59,22.88c0-.56-.21-.96-.64-1.21-.42-.25-1.05-.38-1.88-.38h-1.94v3.37h2.12c.74,0,1.31-.15,1.72-.45.41-.3.61-.74.61-1.33ZM204.12,29.37c0-.68-.25-1.15-.76-1.41-.51-.26-1.19-.4-2.03-.4h-2.2v3.74h2.22c.31,0,.63-.03.96-.08s.63-.15.9-.29c.27-.14.49-.33.66-.59.17-.25.25-.58.25-.98Z"/><path class="cls-1" d="M40.56,169.24v-3.23l6.37-5.76c.4-.38.72-.78.97-1.18.25-.4.37-.84.37-1.33,0-.58-.19-1.06-.56-1.42-.37-.36-.86-.54-1.48-.54-.65,0-1.17.23-1.58.68-.41.46-.65,1.05-.73,1.79l-3.72-.51c.09-.83.32-1.57.68-2.22.36-.65.82-1.2,1.37-1.66.55-.46,1.19-.81,1.91-1.05.72-.24,1.47-.36,2.27-.36.75,0,1.48.1,2.19.3s1.34.51,1.89.92c.56.42,1,.94,1.33,1.57.33.63.49,1.37.49,2.22,0,.58-.08,1.11-.23,1.58s-.37.9-.63,1.31c-.27.4-.58.77-.93,1.12-.35.35-.7.69-1.07,1.03l-3.79,3.37h6.68v3.37h-11.83Z"/><path class="cls-1" d="M246.7,6.75v43.25h84.96V6.75h-84.96ZM291.92,34.21c-1.06.48-2.29.73-3.67.73-1.26,0-2.43-.21-3.5-.62-1.07-.42-2-1-2.78-1.77-.79-.76-1.4-1.68-1.85-2.74-.45-1.06-.67-2.23-.67-3.51s.23-2.49.68-3.56c.46-1.06,1.08-1.96,1.88-2.71.8-.75,1.74-1.32,2.82-1.72,1.07-.4,2.24-.6,3.48-.6,1.16,0,2.29.2,3.41.61,1.12.41,2.02,1.01,2.72,1.79l-2.68,2.68c-.37-.51-.85-.89-1.46-1.13-.6-.25-1.21-.37-1.85-.37-.69,0-1.33.13-1.9.38-.58.26-1.07.61-1.49,1.05-.41.44-.74.97-.97,1.58-.23.61-.35,1.27-.35,2s.12,1.42.35,2.03c.23.62.55,1.15.96,1.58.41.44.9.78,1.47,1.03s1.19.37,1.87.37c.78,0,1.47-.16,2.05-.46.59-.31,1.06-.71,1.41-1.2l2.75,2.59c-.72.83-1.62,1.49-2.68,1.98Z"/><path class="cls-1" d="M24.07,50v73.83h48.19V50H24.07ZM48.16,97.24h-3.86v-12.01l-3.05,2.36-2.01-2.75,5.38-3.95h3.54v16.35Z"/><path class="cls-1" d="M25.23,304.75c-2.15.98-4.63,1.47-7.43,1.47-2.55,0-4.92-.42-7.08-1.26-2.17-.84-4.04-2.03-5.63-3.57-1.59-1.54-2.83-3.39-3.74-5.54s-1.36-4.52-1.36-7.1.46-5.05,1.38-7.2c.92-2.15,2.19-3.98,3.81-5.49,1.62-1.51,3.52-2.67,5.7-3.48,2.18-.81,4.53-1.22,7.06-1.22,2.34,0,4.63.41,6.89,1.24,2.26.83,4.09,2.03,5.49,3.62l-5.42,5.42c-.75-1.03-1.73-1.79-2.94-2.29-1.22-.5-2.46-.75-3.74-.75-1.4,0-2.69.26-3.85.77s-2.17,1.22-3.01,2.13-1.5,1.97-1.96,3.2c-.47,1.23-.7,2.58-.7,4.04s.23,2.87.7,4.11c.47,1.25,1.11,2.31,1.94,3.2s1.82,1.58,2.97,2.08c1.15.5,2.41.75,3.79.75,1.59,0,2.97-.31,4.16-.93,1.18-.63,2.13-1.43,2.85-2.43l5.56,5.23c-1.46,1.69-3.27,3.02-5.42,4Z"/><path class="cls-1" d="M59.11,305.33v-13.83h-12.9v13.83h-7.99v-33.08h7.99v12.53h12.9v-12.53h7.99v33.08h-7.99Z"/><path class="cls-1" d="M78.08,305.33v-33.08h8.04v33.08h-8.04Z"/><path class="cls-1" d="M95.37,296.12v-6.07h11.87v6.07h-11.87Z"/><path class="cls-1" d="M133.41,280.85c-.69-.87-1.58-1.57-2.69-2.08-1.11-.51-2.17-.77-3.2-.77-.53,0-1.07.05-1.61.14-.55.09-1.04.27-1.47.54-.43.27-.8.61-1.1,1.03-.3.42-.45.95-.45,1.61,0,.56.12,1.03.35,1.4.24.37.58.7,1.03.98.45.28.99.54,1.61.77.62.24,1.32.48,2.1.73,1.12.37,2.29.79,3.5,1.24,1.21.45,2.32,1.05,3.32,1.8,1,.75,1.82,1.67,2.48,2.78.65,1.11.98,2.49.98,4.14,0,1.9-.35,3.55-1.05,4.93-.7,1.38-1.64,2.53-2.83,3.44-1.18.9-2.54,1.57-4.07,2.01-1.53.44-3.1.66-4.72.66-2.37,0-4.66-.41-6.87-1.24-2.21-.83-4.05-2-5.51-3.53l5.23-5.33c.81.99,1.88,1.83,3.2,2.5,1.32.67,2.64,1,3.95,1,.59,0,1.17-.06,1.73-.19s1.05-.33,1.47-.61c.42-.28.75-.65,1.01-1.12.25-.47.37-1.03.37-1.68s-.16-1.15-.47-1.59c-.31-.44-.76-.83-1.33-1.19-.58-.36-1.29-.68-2.15-.98s-1.83-.61-2.92-.96c-1.06-.34-2.09-.75-3.11-1.21-1.01-.47-1.92-1.07-2.71-1.8-.79-.73-1.43-1.62-1.92-2.66s-.72-2.31-.72-3.81c0-1.84.37-3.41,1.12-4.72s1.73-2.38,2.94-3.23c1.21-.84,2.59-1.46,4.11-1.85,1.52-.39,3.07-.58,4.62-.58,1.87,0,3.78.34,5.73,1.03,1.95.69,3.65,1.7,5.12,3.04l-5.09,5.37Z"/><path class="cls-1" d="M163.64,305.33c-2.62,0-5.02-.37-7.19-1.12-2.18-.75-4.04-1.85-5.59-3.3-1.54-1.45-2.74-3.22-3.6-5.33s-1.28-4.51-1.28-7.22c0-2.53.45-4.83,1.36-6.92.9-2.09,2.16-3.87,3.76-5.37s3.5-2.66,5.7-3.48c2.19-.83,4.57-1.24,7.13-1.24s4.92.41,7.1,1.24,4.07,1.98,5.65,3.46c1.59,1.48,2.83,3.26,3.71,5.33.89,2.07,1.33,4.35,1.33,6.84,0,1.28-.14,2.47-.42,3.57-.28,1.11-.65,2.11-1.12,3.01-.47.91-1,1.71-1.59,2.41s-1.18,1.28-1.78,1.75v.14l6.96-.14v6.36h-20.14ZM173.27,288.46c0-1.43-.23-2.76-.68-3.97-.45-1.22-1.09-2.26-1.92-3.13-.83-.87-1.82-1.55-2.97-2.03-1.15-.48-2.41-.72-3.78-.72s-2.58.24-3.71.72c-1.14.48-2.13,1.16-2.97,2.03-.84.87-1.5,1.92-1.96,3.13-.47,1.21-.7,2.54-.7,3.97s.23,2.86.68,4.09c.45,1.23,1.09,2.29,1.92,3.18s1.81,1.57,2.94,2.05c1.14.48,2.39.72,3.76.72s2.59-.24,3.74-.72,2.15-1.17,2.99-2.05,1.49-1.95,1.96-3.18.7-2.6.7-4.09Z"/><path class="cls-1" d="M218.94,298.3c-.67,1.63-1.63,3.04-2.87,4.2-1.25,1.17-2.75,2.08-4.51,2.73-1.76.66-3.71.98-5.86.98s-4.15-.32-5.89-.98c-1.74-.65-3.22-1.56-4.44-2.73-1.21-1.17-2.15-2.57-2.8-4.2-.65-1.64-.98-3.45-.98-5.45v-20.61h7.94v19.96c0,.9.12,1.76.35,2.57.23.81.59,1.54,1.07,2.17.48.64,1.12,1.15,1.92,1.52.79.37,1.75.56,2.87.56s2.08-.19,2.88-.56c.79-.38,1.44-.88,1.94-1.52.5-.63.85-1.36,1.07-2.17.22-.81.32-1.67.32-2.57v-19.96h7.99v20.61c0,1.99-.34,3.81-1.01,5.45Z"/><path class="cls-1" d="M252.15,305.33l-2.57-6.49h-12.8l-2.43,6.49h-8.69l13.88-33.08h7.76l13.74,33.08h-8.88ZM243.27,281.08l-4.2,11.35h8.32l-4.11-11.35Z"/><path class="cls-1" d="M285.65,305.33l-7.18-13.13h-2.72v13.13h-7.81v-33.08h12.62c1.59,0,3.14.16,4.65.49,1.51.33,2.87.88,4.07,1.66,1.2.78,2.16,1.81,2.88,3.08.71,1.28,1.07,2.87,1.07,4.77,0,2.25-.61,4.13-1.82,5.65-1.21,1.53-2.89,2.62-5.05,3.27l8.65,14.16h-9.35ZM285.32,282.39c0-.78-.16-1.41-.49-1.89-.33-.48-.75-.86-1.27-1.12s-1.1-.44-1.74-.54c-.64-.09-1.26-.14-1.85-.14h-4.27v7.71h3.8c.66,0,1.33-.05,2.02-.16.69-.11,1.31-.31,1.88-.59s1.03-.68,1.38-1.22c.36-.53.54-1.22.54-2.05Z"/><path class="cls-1" d="M303.08,305.33v-33.08h22.25v6.73h-14.54v6.26h13.74v6.4h-13.74v6.87h15.37v6.82h-23.08Z"/><path class="cls-1" d="M366.49,288.69c0,2.9-.54,5.4-1.61,7.5s-2.49,3.83-4.25,5.19c-1.76,1.35-3.75,2.35-5.96,2.99-2.21.64-4.46.96-6.73.96h-12.33v-33.08h11.96c2.33,0,4.64.28,6.92.82,2.27.54,4.3,1.45,6.08,2.71s3.21,2.95,4.3,5.07c1.09,2.12,1.64,4.73,1.64,7.85ZM358.17,288.69c0-1.87-.31-3.42-.91-4.65-.61-1.23-1.42-2.21-2.43-2.95-1.01-.73-2.17-1.25-3.46-1.56s-2.62-.47-3.99-.47h-3.97v19.35h3.79c1.43,0,2.81-.16,4.14-.49,1.32-.33,2.49-.87,3.5-1.62,1.01-.75,1.82-1.74,2.43-2.99.6-1.25.91-2.79.91-4.63Z"/></svg>