<?xml version="1.0" encoding="UTF-8"?><svg id="Layer_1" xmlns="http://www.w3.org/2000/svg" viewBox="0 0 436.04 307.01"><defs><style>.cls-1{fill:#5b94b3;}.cls-1,.cls-2{stroke-width:0px;}.cls-2{fill:#6baec5;}.cls-3{opacity:.52;}</style></defs><path class="cls-1" d="M155.45,280.78v25.42h-7.73v-25.42h-9.05v-6.6h25.82v6.6h-9.04Z"/><path class="cls-1" d="M166.31,297.29v-5.88h11.49v5.88h-11.49Z"/><path class="cls-1" d="M196.38,280.78v25.42h-7.73v-25.42h-9.05v-6.6h25.82v6.6h-9.04Z"/><path class="cls-1" d="M212.97,306.2v-32.02h21.53v6.51h-14.07v6.06h13.3v6.19h-13.3v6.65h14.88v6.6h-22.34Z"/><path class="cls-1" d="M261.36,282.5c-.66-.84-1.53-1.52-2.6-2.01-1.07-.5-2.1-.75-3.1-.75-.52,0-1.04.04-1.56.13-.53.09-1.01.27-1.43.52-.42.26-.78.59-1.06,1-.29.41-.43.93-.43,1.56,0,.55.12,1,.34,1.36.23.36.56.68,1,.95s.96.52,1.56.75c.61.23,1.28.46,2.04.7,1.09.36,2.22.76,3.39,1.2,1.17.44,2.24,1.02,3.21,1.74.97.73,1.77,1.62,2.4,2.69.64,1.07.95,2.41.95,4,0,1.84-.34,3.43-1.02,4.77-.68,1.34-1.59,2.45-2.74,3.32-1.14.88-2.46,1.52-3.93,1.95s-3,.63-4.57.63c-2.29,0-4.51-.4-6.65-1.2-2.14-.8-3.92-1.94-5.34-3.42l5.06-5.15c.79.97,1.82,1.77,3.1,2.42,1.28.65,2.55.98,3.82.98.57,0,1.13-.06,1.68-.18.54-.12,1.02-.32,1.42-.59.41-.27.73-.64.98-1.09.24-.45.36-.99.36-1.63,0-.6-.15-1.11-.45-1.54-.3-.42-.73-.81-1.29-1.15-.56-.35-1.25-.67-2.08-.95-.83-.29-1.77-.6-2.83-.93-1.02-.33-2.03-.73-3.01-1.18s-1.86-1.03-2.62-1.74c-.76-.71-1.38-1.57-1.85-2.58s-.7-2.24-.7-3.69c0-1.78.36-3.3,1.08-4.57.73-1.27,1.68-2.31,2.85-3.12,1.17-.82,2.5-1.41,3.98-1.79s2.97-.57,4.48-.57c1.81,0,3.66.34,5.54,1s3.54,1.65,4.95,2.94l-4.93,5.2Z"/><path class="cls-1" d="M288.32,280.78v25.42h-7.73v-25.42h-9.05v-6.6h25.83v6.6h-9.05Z"/><g class="cls-3"><path class="cls-2" d="M320.46,150.07c-1.34-1.33-1.34,46.17-1.34,46.17v-47.5,47.5h84.44c-19.06-.79-50.07-13.21-83.1-46.17Z"/></g><path class="cls-1" d="M323.85,196.23h-9.46v-9.46h9.46v9.46ZM323.85,182.04h-9.46v-9.46h9.46v9.46ZM323.85,167.85h-9.46v-9.46h9.46v9.46ZM323.85,153.66h-9.46v-9.46h9.46v9.46ZM323.85,139.47h-9.46v-4.13h9.46v4.13Z"/><path class="cls-1" d="M31.16,197.57c-1.41,0-2.83-.02-4.25-.06l-1.11-.03H0v-18.92h25.79c.38,0,.94.01,1.66.04,36.24.97,66.25-13.81,84.41-41.88,11.26-17.4,21.15-36.05,30.71-54.07C166.11,38.3,186.43,0,218.02,0v18.92c-20.21,0-38.92,35.26-58.72,72.59-9.75,18.39-19.84,37.39-31.54,55.48-21.17,32.72-55.36,50.57-96.6,50.57Z"/><path class="cls-1" d="M404.88,197.57c-41.24,0-75.43-17.85-96.6-50.57-11.7-18.08-21.79-37.09-31.54-55.47-19.8-37.33-38.51-72.6-58.73-72.6V0c31.6,0,51.92,38.3,75.44,82.65,9.56,18.02,19.45,36.66,30.7,54.06,18.17,28.07,48.09,42.81,84.42,41.88.72-.02,1.28-.04,1.66-.04h25.79v18.92l-26.9.03c-1.43.04-2.85.06-4.25.06Z"/></svg>