<?xml version="1.0" encoding="UTF-8"?><svg id="two-sample-t" xmlns="http://www.w3.org/2000/svg" viewBox="0 0 284.06 249.61"><defs><style>.cls-1{font-size:14.02px;}.cls-1,.cls-2,.cls-3,.cls-4,.cls-5{fill:#231f20;}.cls-1,.cls-3{font-family:TimesNewRomanPS-ItalicMT, 'Times New Roman';font-style:italic;}.cls-2{font-size:33.96px;}.cls-2,.cls-4,.cls-5{font-family:TimesNewRomanPSMT, 'Times New Roman';}.cls-3,.cls-4{font-size:37.01px;}.cls-6{stroke-linejoin:round;}.cls-6,.cls-7{fill:none;stroke-width:2px;}.cls-6,.cls-7,.cls-5{stroke:#231f20;}.cls-7,.cls-5{stroke-miterlimit:10;}.cls-5{font-size:17.7px;}</style></defs><text class="cls-3" transform="translate(1.04 108.61)"><tspan x="0" y="0">t</tspan></text><text class="cls-4" transform="translate(22.17 112.28)"><tspan x="0" y="0">=</tspan></text><text class="cls-3" transform="translate(198.96 81.93)"><tspan x="0" y="0">μ</tspan></text><text class="cls-3" transform="translate(238.15 81.93)"><tspan x="0" y="0">μ</tspan></text><text class="cls-3" transform="translate(76.15 81.75)"><tspan x="0" y="0">x</tspan></text><text class="cls-4" transform="translate(57.23 82.15)"><tspan x="0" y="0">(</tspan></text><text class="cls-4" transform="translate(146.13 81.75)"><tspan x="0" y="0">)</tspan></text><text class="cls-1" transform="translate(92.59 89.02)"><tspan x="0" y="0">1</tspan></text><text class="cls-1" transform="translate(145.41 180.11)"><tspan x="0" y="0">1</tspan></text><text class="cls-1" transform="translate(139.82 138.46)"><tspan x="0" y="0">1</tspan></text><text class="cls-3" transform="translate(127.82 133.17)"><tspan x="0" y="0">s </tspan></text><text class="cls-3" transform="translate(126.03 174.25)"><tspan x="0" y="0">n</tspan></text><text class="cls-2" transform="translate(100.68 81.05)"><tspan x="0" y="0">-</tspan></text><text class="cls-2" transform="translate(163.2 81.05)"><tspan x="0" y="0">-</tspan></text><text class="cls-5" transform="translate(164.59 151.8)"><tspan x="0" y="0">+</tspan></text><line class="cls-7" x1="57.23" y1="100.83" x2="281.04" y2="100.83"/><line class="cls-7" x1="115.22" y1="143.64" x2="152.64" y2="143.64"/><polyline class="cls-6" points="109.31 172.92 113.28 169.8 117.43 180.11 122.71 151.81 150.76 151.81"/><text class="cls-1" transform="translate(217.41 180.11)"><tspan x="0" y="0">2</tspan></text><text class="cls-1" transform="translate(211.82 138.46)"><tspan x="0" y="0">2</tspan></text><text class="cls-3" transform="translate(199.82 133.17)"><tspan x="0" y="0">s</tspan></text><text class="cls-3" transform="translate(198.03 174.25)"><tspan x="0" y="0">n</tspan></text><line class="cls-7" x1="187.23" y1="143.64" x2="224.64" y2="143.64"/><polyline class="cls-6" points="181.32 172.92 185.28 169.8 189.43 180.11 194.71 151.81 222.76 151.81"/><line class="cls-7" x1="77.14" y1="59.09" x2="92.59" y2="59.09"/><text class="cls-3" transform="translate(115.53 81.75)"><tspan x="0" y="0">x</tspan></text><text class="cls-1" transform="translate(131.98 89.02)"><tspan x="0" y="0">2</tspan></text><line class="cls-7" x1="116.52" y1="59.09" x2="131.98" y2="59.09"/><text class="cls-4" transform="translate(181.34 83.04)"><tspan x="0" y="0">(</tspan></text><text class="cls-4" transform="translate(270.23 82.63)"><tspan x="0" y="0">)</tspan></text><text class="cls-1" transform="translate(216.7 89.9)"><tspan x="0" y="0">1</tspan></text><text class="cls-2" transform="translate(223.79 81.93)"><tspan x="0" y="0">-</tspan></text><line class="cls-7" x1="201.25" y1="59.97" x2="216.7" y2="59.97"/><text class="cls-1" transform="translate(256.08 89.9)"><tspan x="0" y="0">2</tspan></text><line class="cls-7" x1="240.63" y1="59.97" x2="256.08" y2="59.97"/></svg>